<svg width="50" height="42" viewBox="0 0 50 42" fill="none" xmlns="http://www.w3.org/2000/svg">
<path id="icon" d="M50 5.49735C48.1597 6.31298 46.1838 6.86404 44.1099 7.11182C46.2264 5.84322 47.8551 3.83255 48.6191 1.43731C46.6381 2.61428 44.4416 3.46733 42.1057 3.92676C40.2357 1.93416 37.5707 0.6875 34.6217 0.6875C28.9575 0.6875 24.3657 5.28054 24.3657 10.9434C24.3657 11.7475 24.456 12.5295 24.6328 13.2819C16.1074 12.8534 8.55122 8.77017 3.49224 2.56524C2.6095 4.07905 2.10361 5.84193 2.10361 7.72096C2.10361 11.279 3.55548 14.4189 6.30824 16.2579C4.62664 16.2037 2.59789 15.743 1.30733 14.9738V15.1029C1.30733 20.0727 5.19836 24.2167 9.88953 25.1588C9.02744 25.3937 8.29956 25.5201 7.3652 25.5201C6.70444 25.5201 6.15079 25.4556 5.52487 25.3356C6.8322 29.4085 10.6652 32.3755 15.1511 32.4581C11.6421 35.2082 7.24131 36.8485 2.43786 36.8485C1.60803 36.8485 0.804016 36.7995 0 36.7053C4.53888 39.6154 9.9347 41.3125 15.7267 41.3125C34.5921 41.3125 44.91 25.6853 44.91 12.1333C44.91 11.6881 44.8997 11.2454 44.8817 10.8066C46.8859 9.36124 48.6268 7.55319 50 5.49735Z" fill="white"/>
</svg>
